<svg xmlns="http://www.w3.org/2000/svg" viewBox="0 0 278.72415 125.95741"><g id="Layer_2" data-name="Layer 2"><g id="Layer_1-2" data-name="Layer 1"><text transform="translate(47.72414 37.57907)" font-size="30" fill="#ef4136" font-family="DMSans-ExtraBold, DM Sans" font-weight="800">Hammer <tspan x="133.46875" y="0" letter-spacing="-0.08999em">T</tspan><tspan x="148.79883" y="0">ools.</tspan></text><path d="M10.29528,25.27466H38.9399a4.02584,4.02584,0,0,0,4.02711-4.0215V5.71206A4.027,4.027,0,0,0,38.9399,1.685H10.29528A4.02581,4.02581,0,0,0,6.27381,5.71206v15.5411A4.02465,4.02465,0,0,0,10.29528,25.27466Z" fill="#bac2d6"/><path d="M43.24775,21.25309V5.712a4.31272,4.31272,0,0,0-4.30788-4.30788H10.29526A4.31,4.31,0,0,0,5.99286,5.712V21.25309a4.3074,4.3074,0,0,0,4.3024,4.3024H38.93987A4.31016,4.31016,0,0,0,43.24775,21.25309ZM6.55452,5.712a3.74776,3.74776,0,0,1,3.74074-3.74622H38.93987A3.7505,3.7505,0,0,1,42.68609,5.712V21.25309a3.74758,3.74758,0,0,1-3.74622,3.74074H10.29526a3.74484,3.74484,0,0,1-3.74074-3.74074Z" fill="#242568"/><g opacity="0.3"><path d="M32.57632,25.27466H38.9399a4.02584,4.02584,0,0,0,4.02711-4.0215V5.71206A4.027,4.027,0,0,0,38.9399,1.685H32.57632a4.027,4.027,0,0,1,4.02709,4.02708v15.5411A4.02584,4.02584,0,0,1,32.57632,25.27466Z" fill="#371a45"/></g><g opacity="0.55"><path d="M10.29528,25.27466h4.49327a4.02465,4.02465,0,0,1-4.02147-4.0215V5.71206A4.02581,4.02581,0,0,1,14.78855,1.685H10.29528A4.02581,4.02581,0,0,0,6.27381,5.71206v15.5411A4.02465,4.02465,0,0,0,10.29528,25.27466Z" fill="#fff"/></g><polygon points="35.244 42.619 35.244 25.275 14.884 25.275 14.884 39.99 35.244 42.619" fill="#bac2d6"/><path d="M35.52494,42.93785v-17.944H14.60314V40.23706Zm-.56166-17.38236V42.2994l-19.79848-2.556V25.55549Z" fill="#242568"/><path d="M32.23372,124.18844a3.56794,3.56794,0,0,0,2.43758-5.875C24.011,105.91208,30.02637,87.59075,45.23049,83.86133a5.64629,5.64629,0,0,0,4.336-5.465V49.40352a5.60834,5.60834,0,0,0-4.89768-5.566L35.2442,42.6187,14.88406,39.99014l-6.86349-.88743a5.61881,5.61881,0,0,0-6.3355,5.57165V92.20757C1.68507,111.495,16.541,125.47463,32.23372,124.18844Z" fill="#bac2d6"/><path d="M49.84725,78.39643V49.40352a5.90554,5.90554,0,0,0-5.1427-5.84478l-36.648-4.7346a5.8996,5.8996,0,0,0-6.65242,5.85025V92.20754a33.77713,33.77713,0,0,0,10.50533,24.90223,26.6851,26.6851,0,0,0,20.34726,7.35861H32.257a3.85916,3.85916,0,0,0,3.26848-2.39144,3.7612,3.7612,0,0,0-.64147-3.94642,21.14677,21.14677,0,0,1-4.32817-20.325A20.45177,20.45177,0,0,1,45.29748,84.13369,5.9226,5.9226,0,0,0,49.84725,78.39643ZM1.96581,44.67439a5.33749,5.33749,0,0,1,6.0189-5.293L44.633,44.116a5.34285,5.34285,0,0,1,4.65262,5.2875V78.39643a5.3625,5.3625,0,0,1-4.12222,5.19205A21.009,21.009,0,0,0,30.02106,97.6338a21.70311,21.70311,0,0,0,4.437,20.86311,3.21027,3.21027,0,0,1,.54768,3.36722,3.2592,3.2592,0,0,1-2.79513,2.04479h0a26.13251,26.13251,0,0,1-19.92052-7.21217A33.214,33.214,0,0,1,1.96581,92.20754Z" fill="#242568"/><g opacity="0.3"><path d="M32.23372,124.18844a3.56794,3.56794,0,0,0,2.43758-5.875C24.011,105.91208,30.02637,87.59075,45.23049,83.86133a5.64629,5.64629,0,0,0,4.336-5.465V49.40352a5.60834,5.60834,0,0,0-4.89768-5.566L42.411,43.54542a5.56558,5.56558,0,0,1,.556,2.43761V74.97588a5.64625,5.64625,0,0,1-4.336,5.46493C23.42687,84.17023,17.41152,102.49155,28.0718,114.893a3.56792,3.56792,0,0,1-2.43758,5.87494A25.09631,25.09631,0,0,1,15.16489,119.375,26.03487,26.03487,0,0,0,32.23372,124.18844Z" fill="#371a45"/></g><g opacity="0.55"><path d="M12.688,117.43167A33.89251,33.89251,0,0,1,5.5268,96.24028V48.70707a5.61883,5.61883,0,0,1,6.33553-5.57165l6.86346.88742,20.36015,2.62857,9.42465,1.21879a5.144,5.144,0,0,1,.893.191,5.61079,5.61079,0,0,0-4.73478-4.22368L35.2442,42.6187,14.88406,39.99014l-6.86349-.88743a5.61881,5.61881,0,0,0-6.3355,5.57165V92.20757A33.20924,33.20924,0,0,0,12.688,117.43167Z" fill="#fff"/></g><g opacity="0.55"><rect x="6.59957" y="10.81192" width="22.65172" height="6.27376" transform="translate(31.87423 -3.97663) rotate(90)" fill="#fff"/></g><path d="M44.6519,21.25309V5.712A5.71854,5.71854,0,0,0,38.93987,0H10.29526A5.71579,5.71579,0,0,0,4.58871,5.712V21.25309a5.71286,5.71286,0,0,0,5.70655,5.70655H38.93987A5.71561,5.71561,0,0,0,44.6519,21.25309ZM7.95867,5.712A2.34214,2.34214,0,0,1,10.29526,3.37H38.93987A2.34489,2.34489,0,0,1,41.282,5.712V21.25309a2.342,2.342,0,0,1-2.34208,2.33659H10.29526a2.33922,2.33922,0,0,1-2.33659-2.33659Z" fill="#371a45"/><path d="M36.92909,42.61863v-17.344a1.68489,1.68489,0,0,0-1.685-1.685H14.884a1.68488,1.68488,0,0,0-1.685,1.685V39.99024a1.68515,1.68515,0,0,0,1.46914,1.67127l20.36015,2.62838a1.68524,1.68524,0,0,0,1.90081-1.67126Zm-3.37-15.659V40.70218L16.56894,38.50876V26.95964Z" fill="#371a45"/><path d="M51.2514,78.39643V49.40352a7.313,7.313,0,0,0-6.368-7.2374L8.23675,37.4315A7.30391,7.30391,0,0,0,0,44.67439V92.20754a35.18424,35.18424,0,0,0,10.95812,25.93505,28.07364,28.07364,0,0,0,21.41325,7.72555l.00192-.00055a5.25255,5.25255,0,0,0,3.57509-8.65306,19.75241,19.75241,0,0,1-4.05531-18.98067,19.05628,19.05628,0,0,1,13.739-12.73607A7.32468,7.32468,0,0,0,51.2514,78.39643ZM3.37,44.67439A3.93382,3.93382,0,0,1,7.80537,40.774l36.64742,4.73461a3.93546,3.93546,0,0,1,3.42865,3.89487V78.39643A3.96113,3.96113,0,0,1,44.828,82.22492,22.40455,22.40455,0,0,0,28.68383,97.20543a23.0996,23.0996,0,0,0,4.70966,22.20692,1.81755,1.81755,0,0,1,.31291,1.91974,1.87766,1.87766,0,0,1-1.61148,1.17707,24.74332,24.74332,0,0,1-18.85342-6.84468A31.8093,31.8093,0,0,1,3.37,92.20754ZM32.2337,124.18864v0Z" fill="#371a45"/><rect x="70.27769" y="30.49527" width="26.67881" height="68.10117" transform="translate(148.16295 -19.07124) rotate(90)" fill="#f8b470"/><path d="M117.94842,78.16606V50.92559H49.28559V78.16606Zm-.56166-26.67881V77.6044H49.84725V51.48725Z" fill="#371a45"/><g opacity="0.2"><path d="M61.51558,51.28143a4.73873,4.73873,0,0,0,.65414,2.121A10.52738,10.52738,0,0,0,63.44,55.21222a16.86536,16.86536,0,0,0,3.23133,3.00932c2.41975,1.69238,5.16175,2.64676,7.29786,4.34957a9.63544,9.63544,0,0,1,2.56977,3.07678,14.81425,14.81425,0,0,1,1.33717,3.87293,36.79654,36.79654,0,0,1,.57255,4.16143c.06322.70509.122,1.411.1359,2.126a3.91771,3.91771,0,0,0,.61466,2.09992.21193.21193,0,0,0,.36721-.03565l.00439-.01014a4.14738,4.14738,0,0,0,.20877-2.15038c-.09853-.70345-.15186-1.4165-.21206-2.12953a37.8848,37.8848,0,0,0-.59217-4.29308,15.92021,15.92021,0,0,0-1.44521-4.16994,10.77512,10.77512,0,0,0-2.86253-3.42808c-2.35018-1.85146-5.10684-2.80145-7.35114-4.38935a13.61591,13.61591,0,0,1-2.97224-2.81762c-.41513-.54657-.78914-1.11865-1.17617-1.68579a9.74966,9.74966,0,0,0-1.30939-1.66715.20186.20186,0,0,0-.28549.00274A.20779.20779,0,0,0,61.51558,51.28143Z" fill="#371a45"/><path d="M73.90163,77.921a7.63131,7.63131,0,0,0,.594-4.77108,14.80851,14.80851,0,0,0-1.38227-4.663,12.10367,12.10367,0,0,0-1.30823-2.08183,9.89958,9.89958,0,0,0-6.28549-3.63377c-1.56992-.31154-3.11812-.46594-4.54887-.8935a7.68634,7.68634,0,0,1-1.9955-.89377,8.57407,8.57407,0,0,1-.88526-.63818,9.33646,9.33646,0,0,1-.779-.77146,8.861,8.861,0,0,1-2.01983-3.86826,7.02229,7.02229,0,0,1-.19712-2.17835,10.82326,10.82326,0,0,0,.04937-2.23923l.00548-.0192c-.00747-.04032-.02015-.08446-.032-.13191l-.00953-.0384a.2029.2029,0,0,0-.3411-.09324,1.45523,1.45523,0,0,0-.12183.1374l.00549-.01893a3.62022,3.62022,0,0,0-.74637,2.36869,12.22408,12.22408,0,0,0,.29462,2.47261,9.98212,9.98212,0,0,0,2.27728,4.35971,8.84685,8.84685,0,0,0,4.17212,2.62812c1.5735.46677,3.15625.619,4.65125.91955a8.78046,8.78046,0,0,1,5.62707,3.23146,10.97048,10.97048,0,0,1,1.182,1.88353,12.27439,12.27439,0,0,1,1.23391,4.29664c.04628.37242.03579.74952.06987,1.1225-.01179.37407.01755.74952.00637,1.12305a10.7716,10.7716,0,0,0,.116,2.31958l.00521.02249a.19565.19565,0,0,0,.36235.04881Z" fill="#371a45"/><path d="M66.1134,77.9361a2.63269,2.63269,0,0,0,.67747-1.51028,4.78339,4.78339,0,0,0,.05348-.82658c-.01152-.27535-.047-.5463-.0735-.81808a10.84886,10.84886,0,0,0-.88809-3.12259A11.77132,11.77132,0,0,0,61.72291,66.825a13.618,13.618,0,0,0-5.99314-2.11637,16.97685,16.97685,0,0,0-3.17564-.04937c-.529.03073-1.04962.12232-1.57829.16346a2.50888,2.50888,0,0,0-1.49253.56166l.0314-.00631a1.65277,1.65277,0,0,0-.2037.20431.24577.24577,0,0,0,.05183.34391l.01906.01289.0133.008c.08132.04882.152.06773.223.10312l.03168-.00632a2.96187,2.96187,0,0,0,1.5172-.06115A9.04837,9.04837,0,0,1,52.64,65.77926a15.86166,15.86166,0,0,1,2.96291.04552A12.49723,12.49723,0,0,1,61.099,67.75905a10.65271,10.65271,0,0,1,3.7624,4.36712,8.09229,8.09229,0,0,1,.75274,2.774c.01324.48268.026.95137.01653,1.42555a5.41513,5.41513,0,0,0,.12245,1.50862l.00129.00522a.21326.21326,0,0,0,.359.09653Z" fill="#371a45"/><path d="M49.66033,71.16685a1.854,1.854,0,0,0,1.07211-.12972,9.17163,9.17163,0,0,0,.89171-.40589,6.713,6.713,0,0,1,1.841-.5249,4.96276,4.96276,0,0,1,3.5188.77255A3.21312,3.21312,0,0,1,58.084,72.22051a4.04464,4.04464,0,0,1,.307,1.76533,6.33454,6.33454,0,0,1-.35652,1.8476,3.91775,3.91775,0,0,1-.43346.87514,1.12918,1.12918,0,0,0-.06019,1.08656l.00761.01811a.27721.27721,0,0,0,.32073.16207,1.15251,1.15251,0,0,0,.82378-.77145c.066-.16675.11881-.33842.19553-.49969a3.669,3.669,0,0,0,.20747-.50324,7.45059,7.45059,0,0,0,.41782-2.17835,5.16435,5.16435,0,0,0-.40082-2.25294,4.34366,4.34366,0,0,0-1.4738-1.80319,6.07016,6.07016,0,0,0-4.32743-.97275,10.70763,10.70763,0,0,0-2.11828.55974,4.21983,4.21983,0,0,0-.98311.44045,1.62437,1.62437,0,0,0-.73759.84907.24329.24329,0,0,0,.14446.31236A.27362.27362,0,0,0,49.66033,71.16685Z" fill="#371a45"/><path d="M71.32144,51.24386a4.1631,4.1631,0,0,0,.6451,2.60919,8.6756,8.6756,0,0,0,1.71288,2.053,30.25485,30.25485,0,0,0,4.16939,3.06361,22.92688,22.92688,0,0,1,3.93354,2.99342,15.046,15.046,0,0,1,2.681,4.0723,31.5108,31.5108,0,0,0,2.48441,4.52372,14.74129,14.74129,0,0,0,3.81658,3.59977,27.38156,27.38156,0,0,0,4.58418,2.39721c.78853.33237,1.58227.64365,2.36.98673a5.53828,5.53828,0,0,0,2.5202.51723.20706.20706,0,0,0,.13383-.34966,5.60812,5.60812,0,0,0-2.224-1.2865c-.80231-.26136-1.58179-.57345-2.35078-.90172a26.29027,26.29027,0,0,1-4.39846-2.29655,13.61991,13.61991,0,0,1-3.53052-3.32388,30.66543,30.66543,0,0,1-2.389-4.36547,16.13652,16.13652,0,0,0-2.88619-4.36055,23.91369,23.91369,0,0,0-4.12255-3.14781,24.43835,24.43835,0,0,1-3.9805-2.9616A13.73184,13.73184,0,0,1,72.953,53.23023c-.46218-.65024-.813-1.31173-1.26462-2.06124a.19792.19792,0,0,0-.27055-.07076A.20476.20476,0,0,0,71.32144,51.24386Z" fill="#371a45"/><path d="M82.61927,70.89343a.77744.77744,0,0,0-.06225.69275,1.78712,1.78712,0,0,0,.2966.49337c.23106.30825.41535.64475.63275.961q.63588.95808,1.34512,1.86461.70839.90543,1.48492,1.75437.38916.42288.79176.83316a2.46846,2.46846,0,0,1,.38119.43194c.13357.13712.28578.25916.6979.09708a.435.435,0,0,0,.25416-.26685l.00206-.006c.14048-.42206.0209-.55974-.11718-.6826a2.27935,2.27935,0,0,1-.41877-.36283q-.38752-.39492-.7622-.80217-.74666-.81616-1.42911-1.68827-.68154-.87129-1.29383-1.79358a10.014,10.014,0,0,1-.57695-.94287,1.64763,1.64763,0,0,0-.2796-.47636.77377.77377,0,0,0-.619-.28823l-.00453-.00029A.34.34,0,0,0,82.61927,70.89343Z" fill="#371a45"/><path d="M78.80737,51.32476a4.53914,4.53914,0,0,0,2.16148,2.13282,13.98569,13.98569,0,0,0,2.777,1.04215,24.43533,24.43533,0,0,1,2.67885.89514A8.06018,8.06018,0,0,1,88.71813,56.776a5.01378,5.01378,0,0,1,1.39228,2.15339,11.235,11.235,0,0,1,.49167,2.68873c.0807.939.11841,1.90684.2436,2.89167a9.28443,9.28443,0,0,0,.8058,2.94047,6.82442,6.82442,0,0,0,1.97623,2.39529,10.5409,10.5409,0,0,0,2.66192,1.4461,56.07784,56.07784,0,0,0,5.59424,1.58269,22.28072,22.28072,0,0,1,5.1959,2.10183,16.63311,16.63311,0,0,1,2.33974,1.54867,9.66495,9.66495,0,0,0,2.43559,1.49658.2026.2026,0,0,0,.26164-.11656.20769.20769,0,0,0-.0044-.1555,5.61308,5.61308,0,0,0-1.98459-2.18849c-.81657-.55015-1.6426-1.083-2.49949-1.56513A23.41575,23.41575,0,0,0,102.17731,71.79a55.70352,55.70352,0,0,1-5.48139-1.54567A9.4332,9.4332,0,0,1,94.31505,68.957a5.69409,5.69409,0,0,1-1.65495-2.00118c-.77564-1.581-.77694-3.50242-.93875-5.43312a12.30778,12.30778,0,0,0-.54864-2.95858,6.15423,6.15423,0,0,0-1.702-2.62209A14.3903,14.3903,0,0,0,84.09246,53.392c-.90481-.30359-1.78089-.61431-2.60782-.981a16.34171,16.34171,0,0,1-2.387-1.32269.19531.19531,0,0,0-.27144.05183A.20139.20139,0,0,0,78.80737,51.32476Z" fill="#371a45"/><path d="M94.95891,51.25565a12.85427,12.85427,0,0,0-.07027,2.08949l.04476,2.0777a24.46059,24.46059,0,0,0,.21954,4.34848,8.451,8.451,0,0,0,.66355,2.17093,5.4991,5.4991,0,0,0,3.4634,2.98985,10.28177,10.28177,0,0,0,2.2118.39355c1.46888.10778,2.86342.07075,4.26209.17031a30.51766,30.51766,0,0,1,4.14442.50571,18.98009,18.98009,0,0,1,3.94286,1.20642,10.03975,10.03975,0,0,1,1.79331.98372,5.22407,5.22407,0,0,0,1.91137.88281l.00507.00082a.21376.21376,0,0,0,.24888-.17141.21659.21659,0,0,0-.01014-.1138,3.287,3.287,0,0,0-1.525-1.61835c-.64941-.35213-1.29993-.6933-1.97087-.99167a20.106,20.106,0,0,0-4.17679-1.28046,31.69669,31.69669,0,0,0-4.29514-.52519c-1.43171-.10065-2.87864-.06664-4.23918-.16866a6.08494,6.08494,0,0,1-3.62556-1.24125A5.57966,5.57966,0,0,1,96.259,59.575a19.10047,19.10047,0,0,1-.165-4.13675,13.48753,13.48753,0,0,0-.04155-2.17451,4.25745,4.25745,0,0,0-.73232-2.10649.20112.20112,0,0,0-.36036.09214Z" fill="#371a45"/><path d="M107.35964,69.87432a1.02716,1.02716,0,0,0,.54986.60225,2.71059,2.71059,0,0,0,.66861.23557c.4558.13083.88789.32609,1.32846.49777q1.31185.54054,2.58012,1.18036,1.26723.63886,2.48332,1.37316.60636.36858,1.20066.7561a3.74317,3.74317,0,0,1,.568.42618.69045.69045,0,0,0,.82041.0702l.0037-.00164a.36233.36233,0,0,0,.21364-.30331.70144.70144,0,0,0-.36064-.75446,3.978,3.978,0,0,1-.62843-.376q-.61214-.399-1.23686-.77886-1.25137-.75528-2.55791-1.41429-1.30506-.6582-2.658-1.216c-.44853-.19142-.9112-.345-1.35561-.54849a2.87491,2.87491,0,0,0-.68781-.24875,1.03525,1.03525,0,0,0-.81589.144.29042.29042,0,0,0-.11724.35242Z" fill="#371a45"/><path d="M101.47126,51.16926a2.713,2.713,0,0,0-.62268,1.41539,5.93168,5.93168,0,0,0-.05772,1.53689,7.7111,7.7111,0,0,0,.75459,3.045,6.81569,6.81569,0,0,0,2.04712,2.38979,9.28288,9.28288,0,0,0,2.75811,1.38495,12.44877,12.44877,0,0,0,6.03715.32087,14.98266,14.98266,0,0,0,2.90209-.84687l1.38988-.5965a1.91645,1.91645,0,0,0,1.08863-1.10247.238.238,0,0,0-.1459-.303.25329.25329,0,0,0-.042-.01043l-.01357-.00191a2.126,2.126,0,0,0-1.43706.35241,7.45847,7.45847,0,0,1-1.25879.61979,13.89513,13.89513,0,0,1-2.68654.78436,11.32956,11.32956,0,0,1-5.491-.28577,6.795,6.795,0,0,1-4.14552-3.21144,5.70888,5.70888,0,0,1-.59732-2.57875c.00645-.4547.04937-.90914.058-1.37371a3.751,3.751,0,0,0-.17059-1.46393.21713.21713,0,0,0-.27657-.13438A.22708.22708,0,0,0,101.47126,51.16926Z" fill="#371a45"/><path d="M107.61332,51.15664a1.07334,1.07334,0,0,0-.52834.83838,2.287,2.287,0,0,0,.07158.953,4.10719,4.10719,0,0,0,.835,1.72968,4.19679,4.19679,0,0,0,3.4008,1.42279,3.853,3.853,0,0,0,1.81648-.58112,5.76233,5.76233,0,0,0,1.35259-1.21684,14.42215,14.42215,0,0,0,1.00018-1.39235,5.88211,5.88211,0,0,1,.47733-.68754.82675.82675,0,0,0,.088-.92093.32642.32642,0,0,0-.31441-.19114l-.00769.00054a.832.832,0,0,0-.78407.47829,4.39165,4.39165,0,0,1-.4004.70783,13.30209,13.30209,0,0,1-.92093,1.28485,3.34416,3.34416,0,0,1-2.374,1.397,3.08289,3.08289,0,0,1-2.47659-1.02733,2.34645,2.34645,0,0,1-.55207-1.22068c-.0207-.23037-.01535-.45635-.04606-.68754a1.55941,1.55941,0,0,0-.27645-.78709l-.00973-.01508A.26272.26272,0,0,0,107.61332,51.15664Z" fill="#371a45"/></g><g opacity="0.55"><path d="M86.32993,23.834h3.96531a0,0,0,0,1,0,0V78.5789a3.96531,3.96531,0,0,1-3.96531,3.96531h0a0,0,0,0,1,0,0V23.834a0,0,0,0,1,0,0Z" transform="translate(141.50169 -35.12347) rotate(90)" fill="#fff"/></g><g opacity="0.3"><path d="M49.56651,77.88526h68.10117V71.5666H65.34726a6.31118,6.31118,0,0,1-6.31118-6.31118v-14.049H49.56651Z" fill="#371a45"/></g><path d="M119.35257,77.88523V51.20642a1.6849,1.6849,0,0,0-1.685-1.685H49.56642a1.6849,1.6849,0,0,0-1.685,1.685V77.88523a1.6849,1.6849,0,0,0,1.685,1.685h68.10117A1.6849,1.6849,0,0,0,119.35257,77.88523Zm-3.37-24.99383V76.20025H51.2514V52.8914Z" fill="#371a45"/><rect x="138.62352" y="30.55711" width="26.67881" height="68.10117" transform="translate(216.57062 -87.35522) rotate(90)" fill="#f8b470"/><path d="M186.29425,78.2279V50.98743H117.63142V78.2279Zm-.56166-26.67881V77.66624H118.19308V51.54909Z" fill="#371a45"/><g opacity="0.2"><path d="M129.86141,51.34328a4.7386,4.7386,0,0,0,.65414,2.121,10.52738,10.52738,0,0,0,1.27025,1.80976,16.86536,16.86536,0,0,0,3.23133,3.00932c2.41975,1.69238,5.16175,2.64677,7.29786,4.34957a9.63554,9.63554,0,0,1,2.56977,3.07678,14.81423,14.81423,0,0,1,1.33716,3.87293,36.79672,36.79672,0,0,1,.57256,4.16144c.06322.70508.122,1.411.1359,2.126A3.91771,3.91771,0,0,0,147.545,77.97a.21194.21194,0,0,0,.36721-.03565l.00439-.01014a4.14738,4.14738,0,0,0,.20877-2.15038c-.09853-.70345-.15186-1.4165-.21206-2.12953a37.88707,37.88707,0,0,0-.59217-4.29308,15.91987,15.91987,0,0,0-1.44522-4.16994,10.77486,10.77486,0,0,0-2.86253-3.42808c-2.35017-1.85146-5.10684-2.80145-7.35114-4.38935a13.61585,13.61585,0,0,1-2.97223-2.81762c-.41513-.54657-.78914-1.11865-1.17617-1.68579a9.74973,9.74973,0,0,0-1.3094-1.66715.20186.20186,0,0,0-.28549.00274A.20783.20783,0,0,0,129.86141,51.34328Z" fill="#371a45"/><path d="M142.24746,77.98286a7.63138,7.63138,0,0,0,.594-4.77108,14.80827,14.80827,0,0,0-1.38228-4.663,12.103,12.103,0,0,0-1.30822-2.08183,9.89958,9.89958,0,0,0-6.28549-3.63377c-1.56992-.31154-3.11813-.46594-4.54887-.8935a7.68634,7.68634,0,0,1-1.9955-.89377,8.57378,8.57378,0,0,1-.88527-.63818,9.338,9.338,0,0,1-.779-.77146A8.861,8.861,0,0,1,123.637,55.768a7.022,7.022,0,0,1-.19712-2.17835,10.824,10.824,0,0,0,.04937-2.23923l.00548-.0192c-.00747-.04032-.02015-.08446-.032-.13191l-.00954-.0384a.20291.20291,0,0,0-.34109-.09324,1.45672,1.45672,0,0,0-.12184.1374l.0055-.01893a3.62022,3.62022,0,0,0-.74637,2.36869,12.22335,12.22335,0,0,0,.29461,2.47261,9.98233,9.98233,0,0,0,2.27728,4.35971,8.84688,8.84688,0,0,0,4.17213,2.62812c1.5735.46677,3.15624.619,4.65125.91955a8.78055,8.78055,0,0,1,5.62707,3.23146,10.97109,10.97109,0,0,1,1.182,1.88353,12.2746,12.2746,0,0,1,1.23391,4.29664c.04628.37242.03579.74952.06987,1.1225-.01179.37407.01755.74952.00637,1.12305a10.77157,10.77157,0,0,0,.116,2.31958l.00522.02249a.19565.19565,0,0,0,.36235.04881Z" fill="#371a45"/><path d="M134.45923,77.99794a2.63267,2.63267,0,0,0,.67746-1.51027,4.78159,4.78159,0,0,0,.05348-.82659c-.01151-.27534-.047-.5463-.07349-.81808a10.84886,10.84886,0,0,0-.88809-3.12259,11.77147,11.77147,0,0,0-4.15985-4.83361,13.618,13.618,0,0,0-5.99314-2.11637A16.97685,16.97685,0,0,0,120.9,64.72106c-.529.03073-1.04962.12232-1.5783.16346a2.50893,2.50893,0,0,0-1.49253.56166l.03141-.00631a1.65277,1.65277,0,0,0-.2037.20431.24577.24577,0,0,0,.05183.34391l.01906.01289.0133.008c.08132.04882.152.06773.223.10312l.03168-.00632a2.96183,2.96183,0,0,0,1.51719-.06115,9.04864,9.04864,0,0,1,1.47292-.20349,15.86166,15.86166,0,0,1,2.96291.04552,12.49727,12.49727,0,0,1,5.49613,1.93427,10.65271,10.65271,0,0,1,3.7624,4.36712,8.09229,8.09229,0,0,1,.75274,2.774c.01323.48268.026.95137.01653,1.42555a5.41513,5.41513,0,0,0,.12245,1.50862l.00129.00522a.21327.21327,0,0,0,.359.09653Z" fill="#371a45"/><path d="M118.00616,71.22869a1.854,1.854,0,0,0,1.0721-.12972,9.17072,9.17072,0,0,0,.89172-.40589,6.713,6.713,0,0,1,1.841-.5249,4.96276,4.96276,0,0,1,3.5188.77255,3.21319,3.21319,0,0,1,1.10008,1.34162,4.04464,4.04464,0,0,1,.307,1.76533,6.33454,6.33454,0,0,1-.35652,1.8476,3.91818,3.91818,0,0,1-.43346.87514,1.12918,1.12918,0,0,0-.0602,1.08656l.00762.01811a.27721.27721,0,0,0,.32073.16207,1.1525,1.1525,0,0,0,.82377-.77145c.066-.16675.11882-.33842.19554-.49969a3.67029,3.67029,0,0,0,.20747-.50324,7.45025,7.45025,0,0,0,.41781-2.17835,5.16448,5.16448,0,0,0-.40081-2.25294,4.34366,4.34366,0,0,0-1.4738-1.80319,6.07011,6.07011,0,0,0-4.32743-.97274,10.70655,10.70655,0,0,0-2.11828.55973,4.21964,4.21964,0,0,0-.98311.44045,1.62429,1.62429,0,0,0-.73759.84907.24329.24329,0,0,0,.14446.31236A.27362.27362,0,0,0,118.00616,71.22869Z" fill="#371a45"/><path d="M139.66727,51.3057a4.1631,4.1631,0,0,0,.6451,2.60919,8.6756,8.6756,0,0,0,1.71288,2.053,30.25365,30.25365,0,0,0,4.16939,3.06361,22.9268,22.9268,0,0,1,3.93353,2.99342,15.04577,15.04577,0,0,1,2.681,4.0723,31.5108,31.5108,0,0,0,2.48441,4.52372,14.74129,14.74129,0,0,0,3.81658,3.59977,27.38082,27.38082,0,0,0,4.58418,2.39721c.78852.33238,1.58227.64365,2.36.98673a5.53827,5.53827,0,0,0,2.52019.51723.20707.20707,0,0,0,.13384-.34966,5.60816,5.60816,0,0,0-2.224-1.2865c-.8023-.26136-1.58179-.57345-2.35078-.90172a26.29017,26.29017,0,0,1-4.39845-2.29655,13.61991,13.61991,0,0,1-3.53052-3.32388,30.66543,30.66543,0,0,1-2.389-4.36547,16.137,16.137,0,0,0-2.88619-4.36055,23.91407,23.91407,0,0,0-4.12255-3.14781,24.43835,24.43835,0,0,1-3.9805-2.9616,13.73239,13.73239,0,0,1-1.52742-1.83608c-.46218-.65025-.813-1.31174-1.26463-2.06125a.19791.19791,0,0,0-.27055-.07076A.20475.20475,0,0,0,139.66727,51.3057Z" fill="#371a45"/><path d="M150.9651,70.95527a.77741.77741,0,0,0-.06225.69275,1.78712,1.78712,0,0,0,.2966.49337c.231.30825.41535.64475.63275.961q.63588.95808,1.34512,1.86461.70837.90543,1.48491,1.75437.38918.42288.79176.83316a2.4681,2.4681,0,0,1,.3812.43194c.13356.13712.28577.25916.6979.09708a.435.435,0,0,0,.25416-.26685l.002-.006c.14049-.42206.02091-.55974-.11717-.68259a2.27978,2.27978,0,0,1-.41877-.36284q-.38752-.39492-.76221-.80217-.74664-.81617-1.4291-1.68827-.68154-.87127-1.29383-1.79358a10.014,10.014,0,0,1-.577-.94287,1.64763,1.64763,0,0,0-.2796-.47636.77379.77379,0,0,0-.619-.28823l-.00453-.00028A.34.34,0,0,0,150.9651,70.95527Z" fill="#371a45"/><path d="M147.1532,51.3866a4.5391,4.5391,0,0,0,2.16148,2.13282,13.98584,13.98584,0,0,0,2.777,1.04215,24.4355,24.4355,0,0,1,2.67886.89514,8.06031,8.06031,0,0,1,2.29346,1.38111,5.014,5.014,0,0,1,1.39228,2.15339,11.235,11.235,0,0,1,.49167,2.68873c.0807.939.11841,1.90684.2436,2.89167a9.28443,9.28443,0,0,0,.8058,2.94047,6.82431,6.82431,0,0,0,1.97623,2.39529,10.54073,10.54073,0,0,0,2.66192,1.4461,56.07709,56.07709,0,0,0,5.59424,1.58269,22.28047,22.28047,0,0,1,5.19589,2.10183,16.63321,16.63321,0,0,1,2.33975,1.54867,9.66477,9.66477,0,0,0,2.43559,1.49658.20258.20258,0,0,0,.26163-.11656.20769.20769,0,0,0-.00439-.1555,5.61315,5.61315,0,0,0-1.98459-2.18849c-.81657-.55015-1.6426-1.083-2.49949-1.56513a23.41593,23.41593,0,0,0-5.45095-2.20577,55.70274,55.70274,0,0,1-5.48139-1.54567,9.4332,9.4332,0,0,1-2.38087-1.28732,5.694,5.694,0,0,1-1.65495-2.00118c-.77564-1.581-.77695-3.50242-.93875-5.43312a12.30778,12.30778,0,0,0-.54864-2.95858,6.15429,6.15429,0,0,0-1.702-2.62209,14.39037,14.39037,0,0,0-5.37821-2.55c-.90481-.30359-1.78089-.61431-2.60782-.981a16.34273,16.34273,0,0,1-2.387-1.3227.19531.19531,0,0,0-.27144.05183A.20139.20139,0,0,0,147.1532,51.3866Z" fill="#371a45"/><path d="M163.30474,51.31749a12.85427,12.85427,0,0,0-.07027,2.08949l.04476,2.0777a24.46059,24.46059,0,0,0,.21954,4.34848,8.4506,8.4506,0,0,0,.66355,2.17093,5.4991,5.4991,0,0,0,3.4634,2.98985,10.28177,10.28177,0,0,0,2.2118.39355c1.46888.10778,2.86342.07075,4.26209.17031a30.51766,30.51766,0,0,1,4.14442.50571,18.98009,18.98009,0,0,1,3.94286,1.20642,10.04038,10.04038,0,0,1,1.79331.98372,5.224,5.224,0,0,0,1.91137.88281l.00507.00082a.21375.21375,0,0,0,.24888-.17141.2167.2167,0,0,0-.01014-.1138,3.28707,3.28707,0,0,0-1.525-1.61835c-.64942-.35213-1.29993-.6933-1.97088-.99167a20.10578,20.10578,0,0,0-4.17679-1.28046,31.69635,31.69635,0,0,0-4.29513-.52519c-1.43171-.10065-2.87865-.06664-4.23919-.16866a6.08491,6.08491,0,0,1-3.62555-1.24125,5.57967,5.57967,0,0,1-1.69807-3.3897,19.10111,19.10111,0,0,1-.165-4.13675,13.48523,13.48523,0,0,0-.04155-2.17451A4.25734,4.25734,0,0,0,163.666,51.219a.20112.20112,0,0,0-.36036.09214Z" fill="#371a45"/><path d="M175.70547,69.93616a1.02713,1.02713,0,0,0,.54986.60225,2.71088,2.71088,0,0,0,.66861.23558c.4558.13082.88788.32608,1.32846.49776q1.31186.54054,2.58012,1.18036,1.26723.63887,2.48332,1.37316.60634.36858,1.20066.7561a3.74317,3.74317,0,0,1,.568.42618.69045.69045,0,0,0,.82041.0702l.0037-.00164a.36234.36234,0,0,0,.21364-.30331.70145.70145,0,0,0-.36064-.75446,3.97871,3.97871,0,0,1-.62843-.376q-.61213-.399-1.23686-.77887-1.25139-.75528-2.55791-1.41429-1.30506-.6582-2.658-1.216c-.44853-.19143-.91119-.345-1.35561-.5485a2.87468,2.87468,0,0,0-.6878-.24875,1.03529,1.03529,0,0,0-.81589.144.29042.29042,0,0,0-.11724.35242Z" fill="#371a45"/><path d="M169.81709,51.2311a2.713,2.713,0,0,0-.62268,1.41539,5.93168,5.93168,0,0,0-.05773,1.53689,7.71144,7.71144,0,0,0,.75459,3.045,6.81572,6.81572,0,0,0,2.04713,2.38979,9.28235,9.28235,0,0,0,2.7581,1.385,12.44878,12.44878,0,0,0,6.03715.32087,14.98255,14.98255,0,0,0,2.9021-.84687l1.38988-.59649a1.91651,1.91651,0,0,0,1.08863-1.10247.238.238,0,0,0-.1459-.303.25415.25415,0,0,0-.042-.01043l-.01356-.00191a2.12609,2.12609,0,0,0-1.43707.35241,7.45772,7.45772,0,0,1-1.25879.61979,13.89513,13.89513,0,0,1-2.68654.78436,11.32953,11.32953,0,0,1-5.491-.28577,6.795,6.795,0,0,1-4.14553-3.21144,5.70887,5.70887,0,0,1-.59731-2.57875c.00645-.4547.04937-.90914.058-1.37371a3.75114,3.75114,0,0,0-.17059-1.46393.21715.21715,0,0,0-.27657-.13438A.227.227,0,0,0,169.81709,51.2311Z" fill="#371a45"/><path d="M175.95915,51.21849a1.07332,1.07332,0,0,0-.52834.83837,2.287,2.287,0,0,0,.07157.953,4.10739,4.10739,0,0,0,.835,1.72967,4.19681,4.19681,0,0,0,3.40081,1.42279,3.853,3.853,0,0,0,1.81648-.58112,5.76233,5.76233,0,0,0,1.35259-1.21684,14.42387,14.42387,0,0,0,1.00018-1.39235,5.88211,5.88211,0,0,1,.47733-.68754.82677.82677,0,0,0,.088-.92093.32642.32642,0,0,0-.31441-.19114l-.00769.00054a.832.832,0,0,0-.78407.4783,4.39274,4.39274,0,0,1-.4004.70782,13.30209,13.30209,0,0,1-.92093,1.28485,3.34416,3.34416,0,0,1-2.374,1.397,3.08289,3.08289,0,0,1-2.47659-1.02733,2.34637,2.34637,0,0,1-.55207-1.22068c-.0207-.23037-.01535-.45635-.04606-.68754a1.55941,1.55941,0,0,0-.27645-.78709l-.00973-.01508A.26271.26271,0,0,0,175.95915,51.21849Z" fill="#371a45"/></g><g opacity="0.55"><path d="M154.67575,23.89585h3.96531a0,0,0,0,1,0,0V78.64074a3.96531,3.96531,0,0,1-3.96531,3.96531h0a0,0,0,0,1,0,0V23.89585A0,0,0,0,1,154.67575,23.89585Z" transform="translate(209.90936 -103.40746) rotate(90)" fill="#fff"/></g><g opacity="0.3"><path d="M117.91234,77.9471h68.10117V71.62844H133.69308a6.31118,6.31118,0,0,1-6.31117-6.31118v-14.049h-9.46957Z" fill="#371a45"/></g><path d="M187.6984,77.94707V51.26826a1.6849,1.6849,0,0,0-1.685-1.685H117.91225a1.68489,1.68489,0,0,0-1.685,1.685V77.94707a1.68489,1.68489,0,0,0,1.685,1.685h68.10117A1.6849,1.6849,0,0,0,187.6984,77.94707Zm-3.37-24.99383V76.26209H119.59722V52.95324Z" fill="#371a45"/><path d="M192.23963,83.86163h68.52242a5.61865,5.61865,0,0,0,5.61659-5.61659V50.72374a5.5785,5.5785,0,0,0-.62343-2.57241h-.00562a5.59911,5.59911,0,0,0-4.98754-3.04418H192.23963a5.61862,5.61862,0,0,0-5.61659,5.61659V78.245A5.61862,5.61862,0,0,0,192.23963,83.86163Z" fill="#f15b26"/><path d="M266.65938,78.245V50.72371a5.89446,5.89446,0,0,0-.65491-2.70189l-.08583-.15138a5.85852,5.85852,0,0,0-5.15668-3.04415H192.23954a5.904,5.904,0,0,0-5.89742,5.89742V78.245a5.904,5.904,0,0,0,5.89742,5.89742H260.762A5.904,5.904,0,0,0,266.65938,78.245Zm-1.07807-29.81292a5.34237,5.34237,0,0,1,.51641,2.29162V78.245a5.34183,5.34183,0,0,1-5.33576,5.33576H192.23954a5.34183,5.34183,0,0,1-5.33576-5.33576V50.72371a5.34183,5.34183,0,0,1,5.33576-5.33576H260.762a5.30036,5.30036,0,0,1,4.7379,2.89167Z" fill="#242568"/><g opacity="0.3"><path d="M192.23963,83.86163h68.52242a5.61865,5.61865,0,0,0,5.61659-5.61659V69.10683a5.61866,5.61866,0,0,1-5.61659,5.6166H192.23963a5.61863,5.61863,0,0,1-5.61659-5.6166V78.245A5.61862,5.61862,0,0,0,192.23963,83.86163Z" fill="#26316a"/><path d="M266.65938,78.245V69.10707h-.56166a5.34183,5.34183,0,0,1-5.33576,5.33576H192.23954a5.34183,5.34183,0,0,1-5.33576-5.33576h-.56166V78.245a5.904,5.904,0,0,0,5.89742,5.89742H260.762A5.904,5.904,0,0,0,266.65938,78.245Zm-.56166-6.62693V78.245a5.34183,5.34183,0,0,1-5.33576,5.33576H192.23954a5.34183,5.34183,0,0,1-5.33576-5.33576V71.61808a5.90478,5.90478,0,0,0,5.33576,3.38641H260.762A5.90479,5.90479,0,0,0,266.09772,71.61808Z" fill="#371a45"/></g><g opacity="0.55"><path d="M265.75521,52.39748a5.57847,5.57847,0,0,1,.62343,2.57241V50.72374a5.5785,5.5785,0,0,0-.62343-2.57241h-.00562a5.59911,5.59911,0,0,0-4.98754-3.04418H192.23963a5.61862,5.61862,0,0,0-5.61659,5.61659v4.24615a5.61863,5.61863,0,0,1,5.61659-5.6166h68.52242a5.59912,5.59912,0,0,1,4.98754,3.04419Z" fill="#fff"/></g><path d="M268.06353,78.245V50.72371a7.30985,7.30985,0,0,0-7.30157-7.30157H192.23954a7.30985,7.30985,0,0,0-7.30157,7.30157V78.245a7.30985,7.30985,0,0,0,7.30157,7.30157H260.762A7.30985,7.30985,0,0,0,268.06353,78.245Zm-79.7556-27.5213a3.93621,3.93621,0,0,1,3.93161-3.93162H260.762a3.93621,3.93621,0,0,1,3.93161,3.93162V78.245a3.93621,3.93621,0,0,1-3.93161,3.93161H192.23954a3.93621,3.93621,0,0,1-3.93161-3.93161Z" fill="#371a45"/><g opacity="0.3"><polygon points="14.884 29.021 35.244 32.765 35.244 25.275 14.884 25.275 14.884 29.021" fill="#371a45"/></g><g opacity="0.2"><path d="M15.79675,67.58819c2.90808,0,2.12868-3.66718,2.12868-8.19087s.7794-8.19087-2.12868-8.19087-5.26556,3.66718-5.26556,8.19087S12.88866,67.58819,15.79675,67.58819Z" fill="#fff"/></g><g opacity="0.2"><path d="M220.13538,62.0159c5.42842,0,9.829-2.28957,9.829-5.11391s-4.40061-2.86726-9.829-2.86726-9.829.04294-9.829,2.86726S214.707,62.0159,220.13538,62.0159Z" fill="#fff"/></g></g></g></svg>